
<svg width="120px" height="70px" version="1.1" style="shape-rendering:geometricPrecision; text-rendering:geometricPrecision; image-rendering:optimizeQuality; fill-rule:evenodd; clip-rule:evenodd"
viewBox="0 0 5000 3000">
 

 
  <g >
   <path fill="#333"  d="M3989.05 1307.6c-66.97,88.58 -50.01,35.63 -90.86,32.62 -44.45,-3.26 -26.82,58.95 -95.24,-32.58 -26.87,11.15 -61.79,37.96 -79.23,-7.23 -35.87,-92.94 5.63,-221.89 168.29,-225.28 79.91,-1.67 152.77,34.93 175.53,95.86 12.44,33.31 13.46,89.02 1.96,122.74 -17.79,52.17 -46.67,28.57 -80.45,13.87zm-994.02 1.73c-28.91,25.6 -10.03,23.37 -51.58,50.54 -30.41,-10.45 -15.83,-17.01 -41.45,-18.79 -40.51,-2.82 -40.21,54.68 -96.19,-33.4 -28.27,13.93 -60.47,38.43 -78.84,-6.73 -35.08,-86.27 0.82,-221.85 169.22,-224.35 84.66,-1.25 153.24,32.22 175.18,94.64 12.31,35.02 13.09,86.53 2.67,122.62 -15.92,55.1 -51.01,29.34 -79.01,15.47zm-995.91 3.13c-23.56,-9.47 -44.27,-23.38 -65.82,-45.72 3.96,-121.27 67.45,-189.07 187.28,-192 123.94,-3.02 195.58,62.06 191.26,192 -17.89,18.48 -37.26,29.49 -51.22,46.69l-85.37 -44.2c-20.94,15.9 -30.45,27.51 -52.96,42.06 -17.67,-13.74 -30.86,-28.65 -45.49,-44.84 -29.17,7.52 -51.39,32.48 -77.68,46.01zm-1043.85 0.72l-59.71 -44.34c3.55,-129.31 74.8,-193.59 198.89,-193.84 119.07,-0.25 190.46,70.43 179.09,196.23 -16.9,14.96 -40.22,33.36 -57.45,41.44l-75.78 -43.32 -53.4 40.28 -53.3 -42.28c-29.77,14.33 -48.89,36.33 -78.34,45.83zm2152.5 0.67c9.13,-169.52 18.83,-141.2 -71.73,-240.03l163.72 -369.83 390.43 -1.18 149.85 381.5c-69.02,97.31 -54.49,67.52 -57.47,215.18 -40.24,14.17 -76.63,36.91 -131.11,28.79 -42.87,-6.38 -80.29,-30.86 -107,-54.73 -37.4,-33.44 -54.87,-46.01 -41.87,-125.73 5.33,-32.72 48.74,-76.18 67.24,-110.82l-163.03 0.47c15.98,34.57 48.91,62.5 57.89,97.68 11.24,44 10.56,100.71 -22.43,129.23 -77.83,67.28 -117.32,87.67 -234.49,49.47zm66.27 -700.34c16.59,67.42 -43.14,60.71 -55.79,40.48 -23.02,-36.82 16.53,-61.68 55.79,-40.48zm444.69 -3.59c31.2,-18.94 74.37,-15.59 50.25,48.17l-49.81 -1.93c-6.4,-17.6 -9.48,-25.24 -0.44,-46.24zm-436.49 -269.8c145.22,-41.18 217.2,-72.08 406.49,-7.83 20.76,-45.72 79.59,-105.21 151.32,-105.17 48.55,29.43 151.02,172.38 192.43,230.02 52.68,73.32 347.62,491.18 241.54,573.06 -20.1,15.5 -145.46,33.52 -173.1,28.74 -96.17,-16.66 -80.54,-20.17 -184.33,-11.69 -20.37,-84.69 -28.63,-133.42 -32.19,-223.2 -3.07,-77.06 -1.8,-54.12 -29.14,-57.48 -25.83,44.09 25.87,218.06 5.29,251.83 -21.27,-8.78 -130.06,-299.89 -134.91,-321.57 154.76,-0.23 79.58,-182.96 -19.08,-123.47 -27.35,16.49 -30.81,50.18 -24.41,93.82l-373.02 -0.01c13.43,-83.65 -44.97,-129.65 -105.24,-86.38 -29.34,21.07 -40.69,91.34 6.87,113.61l40.71 15.23c1.41,0.67 3.98,1.84 5.72,3.17l-135.68 306.99c-25.42,-60.97 4.29,-158.73 2.59,-227.86l-6.27 -33.48c-65.08,6.98 -0.99,92.6 -65.4,282.35 -35.42,4.33 -72.38,-2.02 -108.64,4.64 -51.87,9.52 -40.24,20.86 -99.96,8.66 -136.76,-27.97 -292.03,21.78 -19.65,-433.52 30.49,-50.97 65.19,-101.27 100.04,-148.77 35.95,-49 66.4,-94.39 106.39,-142.89 85.14,-103.29 102.47,-156.21 212.9,-55.11 43.42,39.75 15.31,23.03 38.73,66.31zm-2213.59 -138.86l313 245.67c28.39,22.89 31.43,12.85 25.66,41.21 214.98,-52.83 348.29,-98.65 600.59,1.04 13.89,-25.96 -39.87,13.83 54.66,-67.62l264.59 -221.18 -40.72 626.05c6.65,32.26 14.42,51.51 19.32,86.75l-97.68 40.19c25.25,14.12 45.53,21.17 71.68,30.46 41.11,14.59 39.53,11.48 39.53,60.89 -209.9,-43.69 -308.21,33.82 -328.5,236.11l-574.2 -0.22c-9.18,-114.22 -19.34,-169.15 -95.96,-216.57 -78.92,-48.85 -172.71,-33.34 -253.46,-5.53 -4.87,-105.73 44.19,-59.3 107.14,-108.31l-85.37 -40.29c2.97,-27.12 11.1,-46.58 19.81,-73.29 14.06,-43.08 3.47,-30.47 -1.88,-81.12 -6.3,-59.65 -8.77,-123.82 -13.18,-184.06 -8.81,-120.43 -22.97,-253.3 -25.03,-370.18zm1281.95 -85.53c-24.78,33.18 -317.29,277.84 -351,304.22 -34.67,27.12 -124.63,-36.35 -318.91,-28.98 -254.68,9.67 -203.26,82.35 -300.84,2.01 -21.97,-18.1 -44.18,-35.79 -68.13,-55.42 -54.47,-44.64 -258.69,-209.88 -295.33,-226.68 20.75,85.43 25.27,295.64 32.45,396.1 8.97,125.7 37.4,272.49 -0.93,385.89 -52.81,-18.44 -160.65,-63.72 -216.3,-67.5 53.48,44.6 126.57,58.48 180.4,100.94 -58.08,5.96 -133.16,-3.71 -176.98,23.89 41.24,24.49 112.49,21.75 166.75,22.11 -1.7,1.58 -4.38,1.34 -5.37,4.42l-83.73 44.18c-30.55,14.54 -56.47,27.72 -82.23,46.3l197.86 -54.44c-12.78,168.36 -52.11,58.85 -73.14,250.63l-679.05 1.63 0.99 61.59c186.08,16.46 512.72,-8.95 705.18,1.16 45.49,2.38 41.58,14.97 75.32,34.55 36.52,-9.87 31.27,-29.04 76.02,-34.15l52.71 37.92c20.34,-13.42 32.16,-36.76 61.04,-36.32 28.36,0.43 42.68,25.55 76.31,32.46 69.34,-48.74 51.77,-34.18 174.85,-34.14l418.13 0c140.27,-0.07 90.3,-13.31 182.45,35.26 101.73,-59.18 62.42,-36.1 123.95,3.81 73.26,-68.92 62.47,-30.65 134.53,-4.31 33.05,-18.04 28.16,-32.22 75.54,-35.08l327.95 -0.27c71.4,1.23 35.98,21.36 77.71,33.05 54.35,15.23 30.1,-20.78 75.47,14.42 42.19,32.74 36.27,17.16 78.77,10.26 26.88,-4.36 41.48,24.49 82.38,-4.33 58.88,-41.5 27.22,-7.02 85.48,-21.78 61.41,-15.56 12.4,-14.94 76.56,4.47 88.37,26.74 120.92,-13.57 179.54,-31.23 152.07,-45.8 218.5,91.13 377.44,-1.14 80.26,70.31 65.2,0.21 113.53,38.52 20.96,16.62 25.58,27.21 59.75,21.66 49.15,-7.98 -1.42,-21.29 54.83,2.03 61.66,-1.33 52.49,-31.57 82.77,-34.45 19.73,-1.87 21.16,8.82 51.35,0.82 28.33,-7.5 22.77,-17.31 37.9,-25.25 31.58,-16.56 645.11,-6.22 710.36,-6.51l3.73 -62.98 -695.07 -0.2c-4.73,-36.46 -0.05,-70.63 -12.47,-104.68 -11.44,-31.4 -35.22,-48.74 -37.21,-69.92 94.95,-16.62 236.87,-2.46 131.64,-257.93 -62.66,-152.15 -240.4,-424.15 -352.72,-551 -31.73,-35.83 -57.86,-99.89 -131.47,-89.68 -68.06,9.44 -120.36,84.47 -141.14,89.64 -2.01,0.5 -146.82,-27.94 -187.65,-27.26 -45.38,0.76 -162.46,30.48 -188.9,14.94 -19.57,-11.49 -79.05,-78.72 -139.11,-85.2 -66.69,-7.2 -102.56,62.68 -131.86,97.67 -81.93,97.83 -210.7,282.25 -276.04,401.14 -9.98,18.16 -75.18,147.76 -76.41,148.95 -13.85,58.37 -51.53,142.22 -11.34,200.58 43,62.44 120.13,27.43 176.87,60.53 -46.48,65.88 -50.05,63.53 -53,172.64l-329.14 -0.78c-3.4,-53.72 -11.94,-100.37 -31.42,-136.16 -46.8,-85.97 -58.85,-15.11 -60.96,-110.78l198.61 58.37c-25.89,-17.04 -55.29,-36.87 -89.03,-53.77 -30.34,-15.2 -68.59,-33.82 -96.76,-45.48 72.74,-2.72 119.52,-3.15 188.75,-19.63 -34.41,-29.81 -147.07,-23.17 -196.88,-25.63 62.68,-22.59 144.15,-84.27 194.51,-103.55 -59.39,4.96 -151.05,47.76 -210.46,65.11 -62.31,-86.75 41.4,-637.45 20.93,-791.76 -19.6,34.28 -0.05,10.56 -20.33,14.5z"/>
   <path fill="#333" d="M328.47 2668.69c32.35,-86.74 -4.41,-733.03 10.64,-895.98 7.37,-79.89 86.86,-149.49 173.53,-97.99 72.83,43.27 57.25,145.17 57.25,248.84 0,100.24 0,200.47 0,300.71 0,46.18 -11.37,415.62 11.19,439.19 23.35,24.39 99.84,13.81 124.88,3.33 24.7,-55.6 10.3,-607.8 10.3,-719.49 0,-123.52 16.36,-225.29 -43.89,-320.19 -116.6,-183.64 -364.85,-140.36 -443.57,12.69 -51.43,100 -37.06,197.61 -37.06,323.33 0,118.81 -13.93,638.92 10,706.47 37.79,7.74 90.17,8.81 126.73,-0.91z"/>
   <path fill="#333" d="M4556.12 2227.02l92.71 127.17c70.23,107.7 -107.24,240.89 -192.56,121.62 -41.63,-58.2 -11.52,-125.62 -37.94,-191.79 -43.54,4.11 -88.09,-4.31 -124.44,9.89 -34.24,109.77 2.92,274.44 125.42,346.98 176.12,104.27 407.19,-31.87 388.21,-274.62 -7.88,-100.91 -268.98,-374.42 -289.36,-448.51l-25.57 -26.2c-8.45,-10.8 -11.84,-16.79 -19.09,-26.99 -8.34,-11.74 -34.25,-44.96 -37.78,-55.85 -35.01,-107.85 113.22,-207.35 196.86,-109.85 35.53,41.42 27.15,97.11 29.89,161.42l11.09 31.77c36.4,8.63 98.86,15.45 122.72,-9.4 26.4,-30.19 36.12,-250.43 -119.9,-340.54 -161.26,-93.12 -385.39,9.67 -390.59,238.88 -2.4,106.35 97.07,205.98 169.53,308.03l100.8 137.99z"/>
   <path fill="#333" d="M2728.92 1660.6c131.18,-0.72 231.89,-16.65 231.89,152.17 0,212.66 -51.51,202.75 -231.9,201.65l0.01 -353.82zm-143.45 998.87c26.3,8.9 -1.79,13.97 51.55,16.56 120.03,5.84 91.95,-23.82 91.95,-246.01 0,-87.66 -0.02,-175.33 -0.01,-262.99 170.42,0.07 219.89,6.44 314.73,-97.74 69.52,-76.36 77.75,-232.55 55.37,-355.55 -35.26,-107.44 -84.62,-165.77 -192.01,-198.37l-18.5 -5.46c-55.96,-3.22 -257.94,-15.02 -296.48,10.06 -22.59,37.39 -9.42,479.22 -9.42,561.86 0,173.06 -13.2,412.6 2.82,577.64z"/>
   <path fill="#333" d="M1983.98 2631.35c6.48,-9.79 3.99,-6.35 11.02,-15.04 32.51,-40.16 54.25,-42.12 81.31,-122.31 16.76,-49.68 20.78,-159.12 6.66,-206.7 -33.23,-13.54 -95.91,-14.64 -129.18,-0.34 -23.68,61.46 7.77,129.38 -32.74,188.32 -28.7,41.74 -96.68,67.63 -152.37,28.7 -54.39,-38.02 -53.03,-87.57 -52.81,-168.92l0.02 -451.07c-0.01,-77.22 -9.9,-151.37 35.57,-194.41 46.16,-43.71 118.35,-36.58 161.4,7.33 56.08,57.18 8.55,128.86 40.97,187.08 32.46,25.08 99.87,15.19 130.71,2.7 27.92,-112.87 -3.38,-251.78 -96.45,-323.86 -20.19,-15.64 -84.34,-47.01 -91.35,-54.52 -78.19,5.93 -233.14,-24.27 -309.45,168.85 -32.43,82.06 -17.81,365.21 -17.81,475.89 0,171.58 -25.65,313.24 62.7,429.21 25.83,33.9 90.12,81.06 155.96,90.92 112.15,16.8 129.58,-27.66 195.84,-41.83z"/>
   <path fill="#333" d="M1270.43 1509c-47.27,141.25 68.9,499.97 -122.74,503.54 -207.76,3.87 -78.83,-358.3 -130.86,-503.62 -163.94,-4.84 -135.17,-22.06 -135.17,208.89 0,62.83 -5.04,152.58 2.56,212.22 20.18,158.53 128,190.05 178.34,224.15 1.16,0.79 3.5,2.69 4.43,3.35 0.93,0.66 3.02,2.16 4.37,3.43 1.11,79.16 -11.47,459.8 7.96,498.55 31.4,30.06 107.62,19.76 133.04,-3.38 15.41,-53.92 5.35,-402.68 5.71,-487.25 5.97,-39.01 40.66,-7.47 116.53,-90.37 34.23,-37.4 60.72,-83.13 68.98,-148.42 9.38,-74.25 11.22,-374.74 -9.83,-420.88 -37.42,-5 -87.26,-2.09 -123.32,-0.21z"/>
   <path fill="#333" d="M3245.92 1678.28c-0.17,234.75 -0.02,469.51 -0.02,704.26 0,92.72 -29.59,269.1 55.65,290.08 62.83,15.45 259.72,2.91 317.95,-5.24 6.91,-27.41 7.16,-40.96 7.13,-71.62 -0.09,-122.1 -72.41,-57.86 -232.47,-74.37l-2.03 -352.21c71.83,-8.34 171.76,13.08 227.99,-13.65 8.8,-36.58 8.56,-94.19 -0.05,-131.23 -52.64,-22.26 -158.94,-6.41 -224.92,-10.7l-3.1 -350.88c71.91,-8.35 171.84,13.08 228.07,-13.65 8.73,-36.29 8.97,-94.76 -0.1,-131.07 -49.06,-21.27 -201.01,-9.83 -267.83,-10.15 -122.91,-0.6 -106.09,60.8 -106.27,170.43z"/>
   <polygon class="fil2" points="4805.75,2855.91 178.91,2857.44 178.73,2912.91 4803.26,2912.74 "/>
   <path fill="#333" d="M3930.52 2659.47c27.58,9.16 3.32,13.53 52.26,16.32 117,6.66 91.76,-16.01 91.76,-245.77l0.07 -768.71c127.56,-6.34 138.87,20.79 137.3,-86.29 -0.63,-42.57 3.05,-38.25 -15.76,-64.4l-350.35 -3.23c-33.01,1.85 -25.67,-4.34 -42.75,15.77 -22.87,21.92 -19.83,99.69 -1.21,122.54 23.17,27.53 87.52,12.32 126.62,16.98l2.06 996.79z"/>
   <path fill="#333" d="M1859.15 847.33c67.62,-27.06 91.38,65.04 41.27,87.73 -24.85,11.26 -57.23,2.1 -67.2,-19.5 -28.11,-60.89 24.37,-67.61 25.93,-68.23zm-11.39 -42.11c-105.14,31.34 -70.31,214.68 62.56,170.93 93.34,-30.73 72.28,-211.12 -62.56,-170.93z"/>
   <path fill="#333" d="M1290.1 859.97c116.38,-59.47 131.46,122.15 1.4,75.91 -8.46,-24.82 -8.78,-49.97 -1.4,-75.91zm5.73 -44.34c-23.77,10.35 -33.95,11.71 -46.5,43.1 -31.39,78.55 32.76,154.44 117.5,121.97 100.7,-38.58 54.02,-219.48 -71,-165.07z"/>
   <path fill="#333" d="M1598.24 1078.57c13.45,-31.58 35.48,-53.69 53.42,-88.38l-110.68 -0.52c7.74,20.28 15.6,32.25 24.67,47.65l18.31 28.94c10.4,11.77 0.84,2.85 14.28,12.31z"/>
  </g>

</svg>
